<?xml version="1.0" standalone="no"?>
<!DOCTYPE svg PUBLIC "-//W3C//DTD SVG 20010904//EN"
 "http://www.w3.org/TR/2001/REC-SVG-20010904/DTD/svg10.dtd">
<svg version="1.0" xmlns="http://www.w3.org/2000/svg"
 width="1526.000000pt" height="1526.000000pt" viewBox="0 0 1526.000000 1526.000000"
 preserveAspectRatio="xMidYMid meet">
<metadata>
Created by potrace 1.14, written by Peter Selinger 2001-2017
</metadata>
<g transform="translate(0.000000,1526.000000) scale(0.100000,-0.100000)"
fill="#000000" stroke="none">
<path d="M5676 11925 c-19 -19 -38 -47 -44 -62 -13 -40 -7 -138 13 -208 10
-33 18 -62 17 -65 0 -3 5 -18 12 -35 7 -16 13 -51 15 -76 3 -52 -12 -84 -91
-192 -130 -180 -129 -199 30 -385 25 -29 86 -121 88 -131 0 -3 5 -15 9 -26 8
-18 11 -474 6 -860 -2 -144 6 -200 36 -248 4 -7 8 -16 9 -22 1 -5 24 -66 52
-136 45 -113 73 -193 88 -260 3 -13 10 -42 15 -64 5 -22 11 -53 14 -70 2 -16
6 -42 9 -57 3 -16 8 -38 11 -50 4 -24 13 -94 20 -163 3 -22 7 -58 10 -80 2
-22 7 -65 10 -95 3 -30 7 -66 10 -80 2 -14 7 -51 10 -83 4 -32 8 -68 11 -80 2
-12 7 -42 10 -67 3 -25 14 -90 25 -145 10 -55 21 -111 23 -125 2 -14 5 -25 6
-25 2 0 6 -17 14 -60 3 -16 14 -60 25 -97 11 -38 17 -68 14 -68 -3 0 -1 -6 5
-13 6 -7 13 -24 15 -37 2 -14 7 -32 10 -40 9 -23 37 -125 43 -156 3 -15 7 -31
10 -36 3 -4 7 -24 10 -45 3 -21 8 -49 10 -63 8 -42 8 -231 0 -300 -4 -36 -9
-82 -11 -103 -2 -20 -7 -41 -10 -47 -3 -5 -1187 -8 -3115 -7 -1711 1 -3110 -1
-3110 -6 0 -15 28 -56 73 -109 9 -12 17 -25 17 -29 0 -4 6 -14 13 -21 7 -7 50
-67 96 -133 47 -66 88 -121 93 -123 4 -2 8 -8 8 -12 0 -5 32 -54 70 -109 39
-54 70 -104 70 -109 0 -6 4 -12 9 -14 8 -3 84 -118 109 -164 10 -18 4 -33 -43
-105 -29 -46 -57 -88 -62 -94 -5 -5 -24 -35 -43 -65 -18 -30 -40 -62 -47 -70
-8 -8 -25 -33 -40 -55 -14 -22 -58 -87 -98 -145 -39 -58 -96 -141 -126 -185
-30 -44 -57 -82 -60 -85 -15 -12 -20 -50 -7 -51 119 -7 406 -10 1493 -14 710
-2 1292 -5 1295 -6 3 -1 8 -1 12 0 8 1 132 2 158 1 8 -1 78 0 155 0 77 1 142
1 145 0 16 -4 100 -4 100 0 0 3 32 5 70 5 39 0 70 -4 70 -8 0 -5 4 -6 9 -3 9
6 214 10 236 6 6 -1 13 -2 17 -1 8 1 132 2 158 1 8 -1 78 0 155 0 77 1 142 1
145 0 16 -4 100 -4 100 0 0 3 32 5 70 5 39 0 70 -4 70 -8 0 -5 4 -6 9 -3 9 6
214 10 236 6 6 -1 13 -2 17 -1 8 1 132 2 158 1 8 -1 78 0 155 0 77 1 142 1
145 0 16 -4 100 -4 100 0 0 3 32 5 70 5 39 0 70 -4 70 -8 0 -5 4 -6 9 -3 9 6
214 10 236 6 6 -1 13 -2 17 -1 4 0 40 1 80 1 94 0 145 1 186 4 19 1 35 -1 38
-5 2 -4 21 -4 41 0 53 9 83 3 84 -17 1 -9 3 -37 4 -62 2 -25 6 -108 9 -185 6
-171 13 -240 32 -325 13 -60 20 -82 40 -135 4 -11 8 -23 9 -27 2 -5 4 -10 5
-13 1 -3 3 -8 4 -12 5 -20 18 -60 26 -78 17 -38 38 -123 33 -129 -4 -3 0 -6 7
-6 7 0 11 -3 8 -6 -4 -3 -2 -20 3 -37 6 -18 12 -43 15 -57 2 -14 7 -31 10 -39
5 -15 10 -46 19 -121 3 -25 8 -124 10 -220 6 -185 11 -261 19 -297 18 -79 63
-99 233 -102 203 -3 282 -10 342 -28 76 -23 82 -24 111 -28 14 -2 25 -4 25 -5
0 -1 9 -3 20 -5 11 -2 34 -6 50 -9 17 -3 72 -8 124 -12 97 -6 151 6 151 32 0
8 4 14 9 14 8 0 21 38 26 75 4 24 -62 105 -84 105 -5 0 -11 3 -13 8 -1 4 -23
17 -48 30 -74 39 -125 67 -130 72 -3 3 -30 21 -60 40 -30 19 -57 37 -60 40 -3
3 -21 17 -40 30 -32 22 -63 48 -125 105 -12 11 -29 34 -38 52 -19 36 -61 194
-72 268 -4 28 -9 59 -10 70 -2 11 -4 20 -5 20 -1 0 -3 20 -6 45 -2 25 -6 61
-8 80 -3 19 -7 78 -11 130 -3 52 -8 115 -11 140 -3 25 -7 79 -10 120 -2 41 -6
91 -8 110 -2 19 -7 71 -10 115 -4 44 -8 94 -10 110 -2 17 -7 56 -10 87 l-7 57
38 1 c37 1 60 0 86 0 6 -1 75 0 152 0 77 1 142 1 145 0 16 -4 100 -4 100 0 0
3 32 5 70 5 39 0 70 -4 70 -8 0 -5 4 -6 9 -3 9 6 214 10 236 6 6 -1 13 -2 17
-1 8 1 132 2 158 1 8 -1 78 0 155 0 77 1 142 1 145 0 16 -4 100 -4 100 0 0 3
32 5 70 5 39 0 70 -4 70 -8 0 -5 4 -6 9 -3 9 6 214 10 236 6 6 -1 13 -2 17 -1
8 1 132 2 158 1 8 -1 78 0 155 0 77 1 142 1 145 0 16 -4 100 -4 100 0 0 3 37
5 82 5 l83 0 41 -50 c48 -59 88 -75 151 -61 36 8 44 15 57 48 9 21 21 38 28
39 82 7 136 9 338 14 129 3 240 5 245 5 6 0 39 -1 75 -3 36 -2 73 1 83 5 9 5
17 5 17 0 0 -5 18 -6 40 -2 22 4 40 4 40 -1 0 -5 11 -4 25 1 14 5 25 6 25 2 0
-4 31 -7 70 -7 38 0 70 3 70 7 0 4 12 3 28 -1 15 -4 38 -5 52 -1 14 3 40 3 58
-1 17 -4 32 -3 32 2 0 4 10 5 22 0 12 -4 38 -5 58 -1 20 4 45 3 56 0 10 -4 28
-4 39 0 11 4 29 4 40 0 11 -4 29 -4 40 0 11 4 29 4 40 0 11 -4 23 -5 28 -3 4
2 33 4 65 4 90 -2 118 -2 176 0 30 1 58 -1 62 -3 5 -3 18 -2 29 2 11 4 30 4
43 -1 12 -5 22 -5 22 1 0 5 12 5 29 0 16 -4 32 -6 35 -3 2 3 57 4 120 4 64 -1
122 -2 129 -2 6 0 32 1 57 2 25 0 47 0 50 -1 14 -4 100 -4 100 0 0 3 32 5 70
5 39 0 70 -4 70 -8 0 -5 4 -6 9 -3 9 6 214 10 236 6 6 -1 13 -2 17 -1 4 0 40
1 80 1 40 0 90 0 111 1 21 0 619 1 1328 3 710 2 1292 6 1294 8 5 5 -165 262
-177 266 -4 2 -8 8 -8 14 0 8 -55 93 -70 108 -3 3 -25 34 -49 70 -65 97 -105
154 -112 160 -3 3 -20 29 -39 58 -18 28 -37 52 -41 52 -4 0 -10 8 -13 18 -4
10 -14 27 -24 38 -47 54 -47 52 46 185 47 68 89 126 92 129 4 3 13 16 20 29 7
14 17 30 21 35 5 6 20 25 34 42 14 18 25 36 25 41 0 4 11 20 25 35 14 15 25
32 25 38 0 5 5 10 10 10 6 0 10 4 10 10 0 5 29 50 65 99 36 50 65 95 65 100 0
5 4 11 8 13 13 5 94 128 85 129 -4 1 -80 3 -168 4 -88 2 -162 4 -165 5 -3 1
-9 1 -15 0 -8 -2 -337 -1 -415 1 -30 0 -615 1 -630 0 -8 0 -62 0 -120 0 -58 1
-112 1 -120 0 -8 -1 -35 -1 -60 0 -25 1 -51 1 -57 0 -7 0 -21 -1 -30 -2 -10 0
-994 0 -2186 1 l-2168 1 -23 52 c-49 110 -76 202 -101 352 -7 36 -16 119 -20
175 -2 30 -7 91 -10 135 -4 44 -8 100 -10 125 -1 25 -8 63 -14 85 -6 22 -10
42 -9 45 3 12 -85 170 -95 170 -5 0 -8 3 -4 6 3 3 -9 29 -27 57 -69 110 -100
188 -101 253 0 61 18 114 39 114 6 0 38 -14 71 -30 93 -47 166 -36 243 36 15
13 30 24 34 24 3 0 13 6 20 13 7 6 30 21 52 32 63 33 93 84 110 190 2 11 26
79 54 151 65 167 76 230 58 339 -8 47 -58 156 -81 175 -8 7 -15 16 -15 21 0
17 -127 134 -171 158 -116 63 -280 83 -354 44 -34 -18 -98 -37 -135 -39 -19
-1 -36 -3 -37 -4 -2 -2 -7 -4 -13 -5 -5 -1 -11 -3 -12 -4 -2 -2 -14 -5 -28 -7
-37 -7 -112 -75 -137 -124 -23 -45 -24 -107 -8 -260 21 -185 13 -235 -49 -295
-68 -68 -104 -83 -178 -76 -17 1 -91 142 -103 197 -2 5 -14 36 -29 67 -14 32
-26 60 -26 62 0 4 -45 104 -85 190 -14 30 -53 138 -60 165 -49 201 -57 246
-70 393 -3 33 -8 63 -11 68 -3 5 -8 26 -10 47 -3 20 -9 53 -14 72 -5 19 -11
46 -14 60 -3 14 -12 52 -21 85 -10 33 -21 76 -26 95 -14 51 -16 58 -39 135
-11 39 -23 81 -26 95 -2 14 -7 32 -11 40 -3 8 -7 22 -9 30 -1 8 -7 31 -13 50
-6 19 -29 103 -51 185 -22 83 -44 159 -49 170 -58 135 -113 303 -105 317 3 4
0 8 -6 8 -6 0 -9 4 -6 8 4 7 -5 55 -18 97 -18 58 -47 90 -106 116 -25 11 -61
31 -81 45 -43 29 -96 46 -105 33 -3 -5 -10 -7 -15 -3 -19 11 -56 -6 -75 -33
-24 -38 -20 -72 21 -150 40 -78 42 -86 16 -121 -14 -21 -18 -41 -16 -92 6
-115 19 -150 94 -250 39 -52 89 -142 95 -172 2 -7 6 -20 9 -28 9 -23 27 -149
30 -207 1 -29 5 -53 9 -53 4 0 6 -20 5 -45 -1 -25 0 -45 3 -45 3 0 5 -15 6
-32 0 -44 14 -191 19 -220 3 -13 7 -43 10 -68 3 -25 8 -54 10 -65 2 -11 7 -42
10 -70 3 -27 7 -57 9 -65 1 -8 6 -31 10 -50 4 -19 9 -46 11 -60 2 -14 6 -38 9
-55 3 -16 9 -46 13 -65 3 -19 8 -42 10 -50 2 -8 5 -27 8 -42 2 -15 9 -45 15
-68 6 -22 8 -45 5 -50 -3 -6 -2 -10 2 -10 5 0 9 -8 10 -17 1 -10 14 -70 28
-133 15 -63 28 -124 29 -135 2 -11 6 -36 10 -55 26 -149 30 -191 31 -325 0
-149 -10 -184 -87 -328 -27 -48 -48 -90 -48 -93 0 -3 -23 -40 -51 -82 -52 -78
-113 -142 -135 -142 -7 0 -14 -5 -16 -10 -5 -16 -87 -19 -149 -4 -93 22 -105
30 -127 93 -17 48 -124 377 -128 391 0 3 -3 12 -7 20 -3 8 -13 35 -21 60 -33
96 -47 136 -56 155 -5 11 -28 70 -50 130 -46 123 -49 131 -79 197 -12 26 -21
50 -21 53 0 4 -8 25 -19 48 -17 40 -32 76 -36 87 -1 3 -6 16 -12 30 -23 54
-87 263 -98 320 -2 8 -8 35 -15 60 -7 25 -14 54 -16 65 -2 11 -6 31 -9 45 -3
14 -7 34 -9 45 -2 11 -9 38 -15 61 -10 38 -29 124 -36 169 -4 20 -19 92 -37
175 -5 25 -11 54 -13 65 -1 11 -3 20 -4 20 -1 0 -4 16 -6 35 -1 19 -8 67 -13
105 -16 107 -24 184 -27 255 -2 36 -4 65 -5 65 -1 0 -3 27 -5 60 -10 198 -27
343 -45 391 -6 16 -11 30 -11 31 1 3 -7 27 -16 51 -3 9 -7 22 -8 27 -7 31 -98
252 -121 292 -32 58 -62 85 -138 123 -77 39 -99 38 -140 -5z m126 -76 c55 -28
70 -44 101 -112 36 -76 94 -225 103 -263 4 -16 10 -33 14 -39 11 -15 30 -102
35 -165 12 -132 14 -320 3 -320 -6 0 -33 -13 -59 -30 -27 -16 -49 -26 -49 -22
0 4 -4 2 -8 -4 -10 -15 -117 -64 -140 -64 -10 0 -24 10 -29 23 -6 12 -40 53
-75 91 -119 129 -123 165 -30 304 65 96 96 152 85 152 -4 0 -2 5 5 12 25 25 9
145 -32 241 -9 20 -14 37 -11 37 4 0 3 5 -1 12 -4 6 -9 26 -10 42 -1 17 -3 36
-4 41 -1 6 -1 12 0 15 1 3 3 13 5 23 10 54 31 60 97 26z m1318 -248 c13 -9 36
-28 50 -42 16 -16 35 -25 54 -25 44 1 66 -33 82 -129 8 -46 34 -133 59 -200
13 -33 26 -69 31 -80 4 -11 6 -23 6 -27 -1 -5 3 -8 10 -8 6 0 9 -3 5 -6 -3 -3
3 -29 13 -58 10 -28 33 -100 49 -161 17 -60 36 -125 42 -143 6 -18 12 -44 15
-58 2 -14 11 -44 19 -67 8 -23 16 -53 19 -67 3 -14 10 -41 16 -60 6 -19 13
-44 16 -55 8 -30 10 -39 17 -55 4 -8 9 -26 11 -40 3 -14 5 -25 6 -25 1 0 3 -7
5 -15 1 -8 10 -44 20 -80 9 -36 18 -76 20 -90 2 -14 4 -25 5 -25 1 0 3 -9 5
-20 12 -63 15 -83 19 -115 12 -90 18 -137 20 -155 5 -49 21 -127 35 -174 6
-18 10 -36 9 -40 -1 -3 2 -14 5 -23 17 -46 20 -54 23 -66 1 -8 6 -21 10 -30 4
-9 8 -21 10 -27 3 -14 70 -178 94 -230 11 -25 29 -66 41 -92 11 -27 28 -61 36
-78 8 -16 17 -54 20 -82 5 -46 3 -57 -21 -87 -14 -19 -55 -57 -91 -83 -36 -26
-65 -51 -65 -55 0 -5 -5 -8 -10 -8 -10 0 -22 -8 -56 -39 -43 -39 -196 -142
-227 -154 -29 -11 -31 18 -8 81 12 31 22 62 23 67 1 6 7 24 14 40 13 32 13
263 -1 340 -3 22 -8 49 -10 60 -2 11 -4 21 -6 23 -2 3 -4 10 -14 67 -4 28 -10
57 -11 65 -2 8 -6 29 -8 45 -2 17 -9 44 -16 60 -6 17 -11 30 -10 30 3 0 -16
113 -20 118 -2 3 -6 23 -14 67 -4 19 -9 43 -12 53 -3 11 -7 29 -9 40 -3 23
-21 114 -31 157 -3 14 -7 39 -9 55 -2 17 -5 39 -8 50 -3 11 -8 40 -11 65 -3
25 -8 56 -11 70 -6 38 -20 154 -29 236 -2 28 -7 77 -11 110 -3 32 -8 82 -11
109 -2 28 -7 66 -9 85 -3 19 -7 54 -10 78 -19 180 -59 286 -159 422 -25 34
-44 66 -41 70 3 5 1 10 -4 12 -17 5 -26 67 -18 113 5 22 37 23 49 2 3 -7 16
-23 28 -37 l21 -24 -2 44 c-2 25 -13 68 -25 96 -22 51 -82 154 -94 164 -10 7
-21 56 -14 62 8 8 45 -3 74 -21z m2097 -2403 c65 -11 105 -37 99 -66 -4 -21
-8 -31 -62 -157 -23 -55 -52 -132 -64 -172 -17 -58 -26 -73 -49 -82 -15 -7
-66 -50 -113 -96 -100 -97 -102 -98 -208 -35 -36 22 -71 40 -77 40 -22 0 -65
-44 -90 -93 -36 -70 -39 -178 -5 -254 12 -28 22 -56 22 -62 0 -35 -139 -111
-251 -137 -40 -10 -212 -11 -245 -2 -56 15 -123 101 -140 181 -7 30 -6 146 0
177 18 84 30 126 37 136 5 6 7 13 4 15 -9 10 71 153 95 170 14 10 39 20 55 21
75 9 203 105 245 186 12 23 25 42 29 42 4 0 15 14 25 31 10 17 37 48 59 68 97
88 124 87 148 -7 7 -23 20 -47 30 -52 32 -18 91 16 118 67 6 13 24 26 39 29
15 4 32 10 37 14 6 4 24 11 40 15 45 12 45 12 48 15 1 1 15 4 32 6 16 3 31 7
33 9 6 6 44 4 109 -7z m-426 -1168 c10 -6 19 -17 19 -25 0 -8 4 -15 8 -15 10
0 53 -128 58 -173 4 -33 12 -144 18 -232 4 -54 16 -168 22 -200 2 -10 6 -37 9
-60 3 -22 8 -48 11 -58 4 -11 8 -30 10 -43 12 -77 33 -144 68 -212 l26 -52
-155 1 c-165 1 -159 -1 -171 52 -1 4 -2 8 -4 10 -1 1 -3 10 -5 20 -4 22 -31
112 -60 202 -40 123 -77 240 -79 250 -2 6 -11 37 -21 70 -11 33 -19 62 -20 65
0 3 -3 10 -6 15 -4 6 -10 25 -14 43 -5 27 -1 42 25 82 18 28 36 50 41 50 5 0
9 5 9 11 0 6 6 17 13 24 66 72 173 184 175 185 2 0 12 -5 23 -10z m-326 -446
c9 -20 26 -66 37 -103 11 -36 28 -95 39 -131 11 -36 21 -73 24 -83 2 -10 7
-27 10 -37 3 -10 8 -27 10 -37 3 -10 15 -58 29 -108 24 -90 25 -110 3 -113
-48 -8 -1239 -11 -1232 -3 6 4 30 20 55 33 51 29 148 84 170 98 8 5 60 35 114
67 149 87 147 86 206 124 30 19 71 44 90 55 19 10 37 22 40 25 6 7 148 99 177
115 12 7 28 17 35 24 19 16 162 109 169 109 4 1 14 -15 24 -35z m1028 -2339
c9 -21 -9 -28 -34 -14 -17 9 -19 13 -8 20 21 13 36 11 42 -6z m-2703 -1321 c0
-8 5 -14 10 -14 6 0 10 -5 10 -12 0 -20 49 -76 129 -145 139 -121 205 -166
339 -233 128 -63 170 -110 117 -130 -32 -12 -176 -4 -265 15 -41 9 -82 18 -92
20 -9 2 -29 10 -45 18 -48 25 -128 35 -241 29 -210 -10 -233 -8 -264 27 -25
27 -27 36 -22 88 3 32 7 96 9 143 2 47 6 95 9 107 5 25 25 63 26 49 0 -5 6 -4
13 2 13 10 114 41 157 48 14 3 39 8 55 13 32 9 55 -2 55 -25z"/>
</g>
</svg>
