<svg id="Ebene_1" data-name="Ebene 1" xmlns="http://www.w3.org/2000/svg" width="762.9" height="432.86" viewBox="0 0 762.9 432.86">
  <defs>
    <style>
      .cls-1 {
        fill: #ff9700;
      }
    </style>
  </defs>
  <g>
    <rect class="cls-1" x="35.81" y="257.15" width="692.87" height="71.74"/>
    <path d="M293.1,14.6c-2.7,3.4-2.6,7.4,0,15.2,1.2,3.5,1.8,7.3,1.5,8.5s-2.6,4.9-5.1,8.2c-5.9,7.9-5.8,9.8.9,17.3,3.9,4.4,5.6,7.2,6.1,10.1.4,2.2.5,14.3.3,26.8l-.3,22.8,4.7,11.8c5.2,12.7,6.8,20.6,9.3,44.2,2,18.3,4.6,31.3,9.3,46.5,3.7,12.1,4.4,18.9,2.8,30.2l-.7,5.8H10.1l14.5,20.5C32.5,293.8,39,303.6,39,304.2s-6.1,9.9-13.6,20.7-13.9,20.2-14.1,20.8c-.4,1,30.6,1.3,153,1.3H317.7l.6,13.7c.4,11.5.9,15.1,3.1,21.3,6.5,18.4,8,25.7,8.1,40.3.1,18.2.1,18.2,15.8,18.2,8.3.1,12.4.6,15.6,1.9a58.14,58.14,0,0,0,12.7,2.3c8,.6,8.2.5,9.9-2,2.9-4.5,1.1-7.6-7.1-11.7-6.8-3.4-17-10.6-20.7-14.8-2.3-2.5-5.4-17.3-6.2-29.5-.6-9.2-2.1-27.3-3-35.5L346,347H476.8l1.6,2.5c2.9,4.5,10.6,4.1,10.6-.5,0-2,1.5-2,142-2,78.1,0,142-.3,142-.6,0-.5-17-25.4-25.7-37.5l-3.3-4.6,14.5-20.7c8-11.4,14.5-20.9,14.5-21.2s-69.1-.4-153.5-.4H465.9l-2-4.7c-2.9-6.7-4.9-17.1-5.4-28.2-.8-14.4-1.2-15.8-7.6-26.2-6-9.9-7.1-13.8-4.9-18,1.1-1.9,1.1-1.9,4.8.3,4.5,2.5,7.7,2,12.4-2a34.63,34.63,0,0,1,6-4,5.39,5.39,0,0,0,3.3-3.9,68.69,68.69,0,0,1,4.9-14.8c4.6-10.9,2.7-19.5-6.4-28.5-6.5-6.6-17.7-9.1-24-5.5a14.56,14.56,0,0,1-5.3,1.5,13.55,13.55,0,0,0-11.3,6.5c-1.6,3.1-1.7,4.3-.7,12.2.6,4.9.9,10.1.6,11.6-.7,3.4-6.6,8.7-9.7,8.7s-3.9-1.1-6.9-9c-1.4-3.6-4.1-10-6.1-14.2-4.4-9.7-6.5-17.6-7.7-29.7-.6-5.6-2.8-15.5-5.6-25-2.5-8.6-5.6-19.7-6.8-24.6a112.34,112.34,0,0,0-4.9-14.6,43,43,0,0,1-3.2-10.5c-.8-5.8-2.5-9-5.6-10a17.9,17.9,0,0,1-4.7-2.5c-3.5-2.8-8.9-2.5-10.2.5-1,2-.7,3.2,1.4,7,2.2,4,2.3,4.7,1,5.8-1.1.9-1.4,2.6-1.1,6.4.4,4.2,1.3,6.3,4.5,10.6,5.4,7.2,6.2,9.8,7.9,28.3,1.6,18.2,3.9,32,9.1,55,2.6,11.5,3.7,18.5,3.7,25,.1,8.7,0,9.2-4.3,17.5-8.1,15.7-11.8,18.8-19.8,16.9-2.7-.7-5.1-1.4-5.5-1.8s-2.3-6-4.3-12.6c-3.7-12.1-9.9-28.9-17.5-46.8-3-7.3-5.5-16.2-9.6-35-4.7-21.8-5.5-27.6-6.5-43.2-1-16.7-1.3-18.7-4.6-27.5-5.3-14.4-6.2-15.8-10.8-18.5C297.2,11.3,295.6,11.4,293.1,14.6Zm10.6,5.6c.6.7,3,6.1,5.2,12,3.6,9.5,4.1,11.9,4.3,20.4l.3,9.7-6.8,3.6c-6.6,3.5-6.8,3.5-7.9,1.6a39.38,39.38,0,0,0-5-5.8c-4.9-4.8-4.9-7.9-.3-14,5.9-7.7,6.4-11.8,2.8-20.4-1.6-4.1-1.7-10,0-10.6C297.7,16.2,302.1,18.3,303.7,20.2Zm64.2,11.4c1.1,1.4,2.5,2.3,3.1,1.9,2-1.2,3.8,1.5,4.5,6.8A45.27,45.27,0,0,0,378.8,51a172.94,172.94,0,0,1,5.7,17.5c1.8,6.6,4.9,17.6,6.9,24.5a140.19,140.19,0,0,1,4.6,21c1.2,12.8,3.5,20.9,9.4,34.4,8.1,18.2,8.4,15.9-3.6,25.3-15.1,11.8-17.8,12.9-14.8,6,4.1-9.3,3.7-15.4-2.5-43.7-4.8-21.8-6.2-31.1-8-50.3-1.7-18.6-3.2-23.8-8.9-31.2-2.5-3.3-3.6-5.8-3.6-8.1q0-5.85,3.3-1.2l1.6,2.3v-3c.1-1.9-1.3-5.3-3.4-8.5-1.9-3-3.5-5.8-3.5-6.3C362,28,366,29.2,367.9,31.6ZM476,152.9c0,.9-1.3,4.4-3,7.8a62.14,62.14,0,0,0-3.6,9.8c-.4,2.2-1.2,3.5-2.1,3.5s-3.3,2-5.5,4.5-4.7,4.5-5.7,4.5-3.2-1.1-5-2.4c-3.9-2.9-5.4-2.5-8.1,1.9a15.07,15.07,0,0,0-.4,14c1.4,2.7,1.4,3.1-.3,4.3a29.32,29.32,0,0,1-17.5,5.7c-5.7,0-7-.3-9.2-2.4-5.1-4.8-5.6-13.6-1.4-24.8,2.3-6.2,4.1-8.3,7.2-8.3s10.4-5.4,11.9-8.8c.6-1.5,3.1-4.7,5.4-7.1,4.7-4.9,7-5,7.9-.1.5,2,1.2,3,2.5,3,1.8,0,4.9-2.5,4.9-4,0-.9,7.9-3.7,12-4.2S476,151,476,152.9Zm-24.1,59.4c1.5,3.1,2.2,7,2.6,14.7.7,13.1,3,26.1,5.6,31.2L462,262H446.5l-1.8-6.3c-1-3.4-3.6-11.9-5.9-19l-4-12.7,2.7-3.8c3.4-4.6,10.7-12.2,11.6-12.2C449.5,208,450.8,209.9,451.9,212.3Zm-17.5,21.4c2.6,8.1,7.6,26,7.6,27.2,0,.8-9.3,1.1-31.7,1.1H378.5l14.6-8.4c8-4.6,19.9-12,26.5-16.4s12.2-8.1,12.6-8.1S433.5,231.1,434.4,233.7ZM127.6,277.2c-.7,3.6-3.6,16.8-4.7,21.7-.6,2.5-1.4,6.7-2,9.4-2,10.7-2.8,12.7-5.3,12.7-2.7,0-2.7.6,1.4-18,1.1-5.2,2.5-11.7,3-14.4,2.3-11.7,3-12.8,7.3-13.5C127.7,275.1,127.8,276,127.6,277.2Zm551.9.5c-.4,1.6-1.3,5.7-2.1,9.3s-2.3,10.7-3.4,15.9a93,93,0,0,0-2,13.7c0,3.3-.4,4.3-1.9,4.7-2.5.6-3.1,0-3.1-3s-.3-2.9-3.5.1c-3.9,3.6-8.1,4.3-11.4,1.9-2.2-1.7-2.6-2.9-2.9-8.1-.6-11.6,7.9-21.2,18.7-21.2,3.9,0,3.9-.1,4.6-4.3,1-6.8,2.5-10.5,4.3-11C680,274.8,680.2,275,679.5,277.7Zm-603.2.2c4.7,1.1,5,1.4,4.3,3.9-.6,1.8-1.1,1.9-4.8,1-7.7-1.7-13.8,1.1-13.8,6.3,0,2.3,1.2,3.8,6.5,8,7.3,5.7,8.5,7.4,8.5,11.9,0,8.9-9.6,14.8-19.6,12.1-5.7-1.6-6.6-2.4-5.9-5.3l.6-2.5,3.7,1.9c4.6,2.4,10.4,1.9,13.8-1.3,3.7-3.4,3.1-6.2-2.2-10.6-9.9-8.1-10.4-8.8-10.4-13.7,0-5.3,2.9-9.3,8.1-11.2C69.3,276.9,71.4,276.8,76.3,277.9Zm148.3.8c.8.3,1.4,1.6,1.4,3,0,1.8-.4,2.4-1.4,2-6.9-2.7-15.1-1.2-16.6,2.9-1.5,3.8.4,7,6.4,11,6.6,4.3,9.1,9.2,7.5,14.6-1.1,4.1-3.1,6.2-8.2,8.3-4.8,2-8.3,1.9-13.4-.4-3.4-1.6-4.1-2.3-3.6-4,.6-2.4,1.8-2.6,5.3-.6,7.6,4.4,17.8-2,14.1-8.8a25.43,25.43,0,0,0-6.2-5.7c-5.5-3.9-7.9-7.4-7.9-11.8s3.9-9.5,8.5-10.9C214.1,277.2,221.2,277.4,224.6,278.7Zm366.9-.1c1.6.7,1.9,2.2.7,4.1-.6.9-1.7,1-4.6.2-7.1-1.9-13.6,1-13.6,6.2,0,2.1,1.1,3.6,4.1,6.1,9.6,7.7,10,8.2,10.6,12.5,1.3,9.5-8.6,16.3-19.3,13.4-5.8-1.6-6.8-2.5-6-5.4l.6-2.5,3.7,1.9c4.7,2.4,8,2.4,12,0,6.2-3.8,5.3-7.8-3-13.9-7.1-5.3-7.9-6.4-7.9-11.8,0-8.1,6.7-12.8,16.5-11.8A32.69,32.69,0,0,1,591.5,278.6ZM285,280.9c0,3-1.9,4.5-4.5,3.5-3.2-1.3-1-6.4,2.7-6.4C284.5,278,285,278.8,285,280.9Zm133.5-.6c7.4,3.8,10.2,10.5,8.5,19.9-2.6,13.3-13.8,20.8-31.2,20.8-5.8,0-6.8-.3-6.8-1.8s6.7-37.3,7.6-40.1C397.2,277.2,414.3,278.1,418.5,280.3Zm275.3.3a4,4,0,0,1-1.2,3.3,3.19,3.19,0,0,1-4.5-4.5C689.8,277.3,693.4,278,693.8,280.6Zm-87.2,7.9-.7,3.5h4.5c3.9,0,4.4.2,3.9,2-.4,1.6-1.4,2-4.8,2h-4.4l-1.1,5.7c-.7,3.2-1.6,7.3-2.1,9.1-1.4,5.9,1.1,8,5.7,4.7,2.3-1.6,3.4-1.1,3.4,1.6,0,1.1-1.6,2.3-4.6,3.5-4.2,1.6-4.9,1.6-7.3.3s-2.6-2.1-2.5-6.5a77.54,77.54,0,0,1,1.6-11.4c1.4-6.2,1.4-6.5-.4-6.8-2.6-.5-2.2-3.1.7-3.8,1.8-.4,2.6-1.5,3.1-4,.5-2.8,1.1-3.4,3.1-3.4C607,285,607.2,285.3,606.6,288.5Zm-497.1,3.7c.2.2-.8,5.4-2.1,11.7s-2.3,12.5-2.2,13.9c.2,2.1-.2,2.8-1.9,3s-2.4-.3-2.9-2.2l-.6-2.5-4,3c-5,3.5-7.1,3.6-10.3.4s-3.4-10.1-.1-17c4-8.5,9.3-11.8,17.9-11.1A29.7,29.7,0,0,1,109.5,292.2ZM146,292a2.46,2.46,0,0,1,1.3,3,7.31,7.31,0,0,1-.7,2c-.1,0-1.5-.4-3.1-.9-7.4-2.1-10.3,3.7-4.1,8.4,6.4,4.9,6.8,11.3.9,15.2-5.3,3.5-15.4,1.3-13.7-3,.5-1.3,1-1.4,2.5-.6a13.67,13.67,0,0,0,5.7.7c3.1-.3,3.7-.7,4-2.9.2-1.9-.6-3.4-3.2-5.6-4.5-4.1-5.9-6.8-5.1-10.4C131.7,292.6,140.7,289.1,146,292Zm28.7-.4,3,.6-2.4,10.6c-1.2,5.9-2.2,12.2-2.1,14.1.2,2.7-.2,3.5-2,4.2-2,.7-2.3.5-2.8-2.1l-.6-2.9-3.2,2.3c-4.2,3.2-6.9,3.9-10,2.5-5.5-2.5-5.3-13.9.5-21.8C159.8,292.5,166.5,289.9,174.7,291.6ZM312,293c2.4,2.4,2.4,1.7,0,13.3-3.1,15-2.9,14.7-5.7,14.7-2.1,0-2.4-.4-2-2.3,2-8,3.9-19.8,3.4-21.1-1.1-2.8-4.6-1.7-9.1,2.8-3.9,3.9-4.7,5.3-6.3,12.5s-2,8.1-4,8.1c-2.9,0-2.9-.5.5-16,2.6-11.9,2.8-12.5,5.3-12.8s2.6,0,2.1,2.5c-.5,2.7-.4,2.7,1.4,1.2C303.3,291,308.9,289.9,312,293Zm32.6-.7c.3.3-.1,4.1-1,8.4s-2.1,10.7-2.7,14.3c-2.2,15-5.3,19.8-13,20.7-5.9.7-10.9-1.7-10.9-5.1,0-3.9,1.1-5.6,3.4-5.6,1.7,0,2.1.6,2.1,3.2,0,3.1.3,3.3,3.6,3.6,4.6.4,6.9-2.2,8.4-9.6.7-3.1,1.1-5.9.9-6.1s-1.7.8-3.4,2.2c-3.9,3.3-6.1,4-9.4,2.7-9.1-3.4-3.4-23.3,8.2-28.7C333.4,291.1,343.4,291.1,344.6,292.3ZM367,292a2.46,2.46,0,0,1,1.3,3,7.31,7.31,0,0,1-.7,2c-.1,0-1.5-.4-3.1-.9-8-2.2-10,3.3-3.3,9,3.7,3.3,4.3,4.2,4.3,7.9,0,3.2-.6,4.6-2.5,6-5.5,4.2-15,3.1-15-1.7,0-2,.3-2.4,1.8-1.8,5.4,2.4,11.2,1.3,11.2-2.1,0-.7-2-3.2-4.5-5.5-3.7-3.5-4.5-4.8-4.5-7.9,0-3.9,1.3-6.1,4.5-7.8C359,290.8,364.6,290.7,367,292Zm90.6.2c.3.4-.4,5-1.5,10.4a89.34,89.34,0,0,0-2.1,14c0,3.3-.4,4.3-1.9,4.7-2.5.6-3.1,0-3.1-3,0-1.2-.4-2.3-1-2.3a1,1,0,0,0-1,.8c0,1.1-7.4,5.2-9.4,5.2-.9,0-2.8-1.1-4.1-2.5-6.1-6,0-22.5,10-27.1C446.4,291,456.3,290.9,457.6,292.2Zm14.2,1.8c-.3,1.6-.3,3-.1,3a50.81,50.81,0,0,0,4.5-3c4.4-3.2,8.3-3.8,11.3-1.7,1.5,1.2,1.7,2.3,1.2,7.8a119.74,119.74,0,0,1-2.2,13.6c-1.6,6.6-1.9,7.3-4.2,7.3-2.8,0-2.8.2.3-13.1,1.9-8.2,1.6-11.3-1.1-11.7s-9.8,5.8-11.5,9.7a69.35,69.35,0,0,0-2.4,8.8c-1,5.1-1.4,5.8-3.7,6.1l-2.5.3,3-14.5c2.6-12.4,3.4-14.6,5.1-14.9a15.6,15.6,0,0,0,2.4-.6C472.1,291.1,472,292.3,471.8,294Zm44.2-1.5c2.1,1.1,2.7,2,2.3,3.5-.6,2.1-2.8,2.7-3.8,1-.9-1.5-6.8-1.2-9.1.5-4.8,3.3-6.9,12.9-3.8,17.3,1.8,2.6,7,3,10,.7,2.5-1.9,3.1-1.9,3.7.5,1,3.7-7.2,6.9-12.9,5-5.1-1.7-7.4-5.3-7.4-11.5C495,296.8,506.4,287.5,516,292.5Zm25.8.1c3,2.1,2.9,6.8-.3,10-2.5,2.5-10.5,6.4-13.1,6.4-1.7,0-1.9,5.1-.2,6.8s7,1.5,9.7-.4c1.9-1.4,2.5-1.4,3.2-.3,1.5,2.4,1.1,2.9-3.7,5-11.1,5-19.1-3.5-15-15.9C525.7,294.4,535.7,288.3,541.8,292.6Zm175.3.7c8.8,5.9,4.8,22.9-6.5,27.2-5.1,2-8.3,1.5-12.1-1.8-4.8-4.1-4.6-15,.2-20.8C704.6,290.9,711.1,289.3,717.1,293.3ZM235,296.4c0,7.3,1.2,16.6,2.2,16.6.5,0,3.2-4.7,5.9-10.5,4.3-9.2,5.3-10.5,7.4-10.5,2.4,0,2.5.3,2.5,5.7,0,8.4,1.1,16.3,2.2,15.7.5-.3,3.1-5.3,5.9-11,4.3-9,5.3-10.4,7.4-10.4,2.3,0,2.4.2,1.4,2.7-1.4,3.7-6.9,14.5-10.6,20.8-2.1,3.6-3.6,5.1-5.5,5.3-2.9.4-3.4-.8-4.5-10.8-.3-3.3-.9-6-1.2-6s-2.7,3.7-5.2,8.3c-3.7,6.6-5.1,8.3-7.2,8.5s-2.6-.2-3.1-2.5a150.43,150.43,0,0,1-2.6-21.6c0-4.4.2-4.7,2.5-4.7S235,292.4,235,296.4Zm46.7-1.2c-.7,5.2-4.8,24.1-5.3,25a3.78,3.78,0,0,1-2.6.8c-2.4,0-2.3-.6,1.2-17.8,2.3-10.5,2.6-11.2,4.8-11.2S282.2,292.4,281.7,295.2Zm342.6,8c-1.3,6.1-2.2,11.7-1.9,12.5,1.4,3.5,8.5-.6,12.4-7,1.1-1.8,2.5-6.2,3.3-10,1.1-6,1.5-6.7,3.6-6.7,2.8,0,2.8.3.3,11.6a83.13,83.13,0,0,0-2,13c0,3.3-.4,4.3-1.9,4.7-2.5.6-3.1,0-3.1-3,0-1.3-.4-2.3-1-2.3a1,1,0,0,0-1,.9c0,.4-2,1.9-4.5,3.2-4.2,2.2-4.7,2.3-7.2.9-4.7-2.7-4.9-3.9-2.4-16.2,1.3-6.2,2.5-11.6,2.8-12.1s1.5-.7,2.7-.7h2.3Zm63.6,2.5c-1.6,7.5-2.9,14-2.9,14.5s-1.1.8-2.5.8-2.5-.4-2.5-1c0-1.1,4.9-24.8,5.5-26.8a3.44,3.44,0,0,1,2.9-1.2h2.4ZM485,348a1,1,0,0,1-.9,1,2.14,2.14,0,0,1-1.6-1c-.3-.6.1-1,.9-1S485,347.4,485,348ZM350.5,415.5c2.1,4.2,15.7,15.2,22.4,18,5.9,2.5,8.1,4.2,8.1,6.3s-14,1-21.1-1.9c-4.7-1.8-6.6-2-14.5-1.4s-9.3.4-10.9-1.1c-1.3-1.4-1.6-2.7-1.1-6.2.3-2.5.6-6.4.6-8.8,0-4.2.1-4.3,4.8-5.8a66.34,66.34,0,0,1,7.2-1.9,12.18,12.18,0,0,0,2.7-.6A22.81,22.81,0,0,1,350.5,415.5Z" transform="translate(-10.1 -12.15)"/>
    <path d="M662,296.9c-5.9,3.1-9.7,12.5-7.4,18.5,1.6,4.1,9-.5,12.7-7.9,2.4-4.9,3.2-10.6,1.6-11.6C666.9,294.6,665.9,294.8,662,296.9Z" transform="translate(-10.1 -12.15)"/>
    <path d="M400.6,285.2c-.3,1.3-1.2,6.1-2.1,10.8s-2.1,10.4-2.6,12.7c-1.7,7.7-1.7,7.6,5.7,7,12.1-.9,20.4-8.8,20.4-19.5,0-8.7-5.1-13.2-14.9-13.2C401.6,283,401,283.2,400.6,285.2Z" transform="translate(-10.1 -12.15)"/>
    <path d="M96.2,297c-5.5,3.4-9.4,12.5-7.7,18,1.2,3.9,6.6,1.5,10.7-4.8,2.6-4,5.2-12.7,4.3-14.3S99.8,294.8,96.2,297Z" transform="translate(-10.1 -12.15)"/>
    <path d="M165.1,296.2a26.22,26.22,0,0,0-5.4,5c-2.5,3.1-3,4.6-3.1,9.5-.1,5.2.1,5.8,2,6.1,2.8.4,10-7.7,11.4-12.7,1.8-6.7,1.7-8.6-.5-8.9A10.72,10.72,0,0,0,165.1,296.2Z" transform="translate(-10.1 -12.15)"/>
    <path d="M331.9,296.6c-7.8,4.9-11.6,20.4-4.9,20.4,3.3,0,9.6-8.4,11.3-15,.8-3.2,1.2-6.2.9-6.5C338.2,294.5,334.5,295.1,331.9,296.6Z" transform="translate(-10.1 -12.15)"/>
    <path d="M444.5,297c-5.5,3.5-9.8,13.8-7.5,17.9,1.4,2.8,3.2,2.6,7-.5,4-3.5,7.1-9.6,7.3-14.7.2-3.5-.1-4.2-1.8-4.5A9.84,9.84,0,0,0,444.5,297Z" transform="translate(-10.1 -12.15)"/>
    <path d="M530.9,299.1c-3.3,3.5-3.9,6.5-1.1,5.4.9-.4,2.8-1.1,4.2-1.6,2.8-1,5.4-4.5,4.5-5.9C537.3,295.1,533.7,296.1,530.9,299.1Z" transform="translate(-10.1 -12.15)"/>
    <path d="M707.2,296.7c-4,1.9-6.1,5.2-6.8,10.5-.7,6.4,1.2,9.3,6,9.3,3.3,0,4.4-.6,6.8-3.6C720.5,303.9,716.1,292.4,707.2,296.7Z" transform="translate(-10.1 -12.15)"/>
  </g>
</svg>
